<svg width="46" height="43" viewBox="0 0 46 43" fill="none" xmlns="http://www.w3.org/2000/svg">
<path d="M43.2215 21.5C43.2215 31.8511 34.2524 40.5 22.8608 40.5C11.4691 40.5 2.5 31.8511 2.5 21.5C2.5 11.1489 11.4691 2.5 22.8608 2.5C34.2524 2.5 43.2215 11.1489 43.2215 21.5Z" fill="#351313" stroke="#351313" stroke-width="5"/>
<path d="M26.6037 14.4545H29.2386V23.9574C29.2386 24.9991 28.9924 25.9152 28.5 26.706C28.0123 27.4967 27.3258 28.1146 26.4403 28.5597C25.5549 29 24.5204 29.2202 23.3366 29.2202C22.1482 29.2202 21.1113 29 20.2259 28.5597C19.3404 28.1146 18.6539 27.4967 18.1662 26.706C17.6785 25.9152 17.4347 24.9991 17.4347 23.9574V14.4545H20.0696V23.7372C20.0696 24.3433 20.2022 24.883 20.4673 25.3565C20.7372 25.83 21.116 26.2017 21.6037 26.4716C22.0914 26.7367 22.669 26.8693 23.3366 26.8693C24.0043 26.8693 24.5819 26.7367 25.0696 26.4716C25.562 26.2017 25.9408 25.83 26.206 25.3565C26.4711 24.883 26.6037 24.3433 26.6037 23.7372V14.4545Z" fill="white"/>
</svg>
